<svg width="1440" height="155" viewBox="0 0 1440 155" fill="none" xmlns="http://www.w3.org/2000/svg">
<g clip-path="url(#clip0_22_41)">
<rect width="1440" height="155" fill="white"/>
<line x1="29.0106" y1="106.5" x2="1440.01" y2="112.5" stroke="#211C6A" stroke-width="5"/>
<path d="M9 68.3C9 51.2153 9 42.6729 12.3776 36.1708C15.2239 30.6915 19.6915 26.2239 25.1708 23.3776C31.6729 20 40.2153 20 57.3 20H215.7C232.785 20 241.327 20 247.829 23.3776C253.309 26.2239 257.776 30.6915 260.622 36.1708C264 42.6729 264 51.2153 264 68.3V109H9V68.3Z" fill="#211C6A"/>
<path d="M68.3821 75.872C67.5288 75.5413 67.2728 74.9547 67.6141 74.112L75.2301 55.36C75.5501 54.656 76.0515 54.304 76.7341 54.304H76.7981C77.4915 54.336 77.9608 54.688 78.2061 55.36L85.9501 74.112C86.2915 74.9547 86.0461 75.5413 85.2141 75.872C84.3715 76.2027 83.7848 75.9573 83.4541 75.136L81.7261 70.944H71.7581L70.1101 75.136C69.7795 75.968 69.2035 76.2133 68.3821 75.872ZM72.8141 68.256H80.6221L76.6381 58.56L72.8141 68.256ZM91.4376 76C90.5416 76 90.0936 75.552 90.0936 74.656V54.816C90.0936 53.92 90.5416 53.472 91.4376 53.472C92.3336 53.472 92.7816 53.92 92.7816 54.816V61.488C93.3363 60.9227 94.0296 60.496 94.8616 60.208C95.6936 59.92 96.6643 59.776 97.7736 59.776H98.9896C101.123 59.776 102.702 60.288 103.726 61.312C104.75 62.336 105.262 63.9147 105.262 66.048V69.728C105.262 71.8507 104.75 73.4293 103.726 74.464C102.702 75.488 101.123 76 98.9896 76H97.7736C96.6643 76 95.6936 75.856 94.8616 75.568C94.0296 75.28 93.3363 74.8587 92.7816 74.304V74.656C92.7816 75.552 92.3336 76 91.4376 76ZM97.7736 73.312H98.9896C100.387 73.312 101.331 73.0613 101.822 72.56C102.323 72.048 102.574 71.104 102.574 69.728V66.048C102.574 64.6507 102.318 63.7067 101.806 63.216C101.304 62.7147 100.366 62.464 98.9896 62.464H97.7736C96.3656 62.464 95.1816 62.6453 94.2216 63.008C93.2616 63.36 92.7816 63.9147 92.7816 64.672V71.104C92.7816 71.8507 93.2616 72.4053 94.2216 72.768C95.1816 73.1307 96.3656 73.312 97.7736 73.312ZM114.964 76C113.609 76 112.537 75.7227 111.748 75.168C110.959 74.6027 110.452 73.76 110.228 72.64C110.153 72.192 110.239 71.84 110.484 71.584C110.74 71.328 111.092 71.2 111.54 71.2C111.977 71.2 112.292 71.312 112.484 71.536C112.687 71.7493 112.852 72.0747 112.98 72.512C113.108 72.832 113.321 73.0453 113.62 73.152C113.929 73.2587 114.377 73.312 114.964 73.312H120.212C121.044 73.312 121.604 73.1787 121.892 72.912C122.18 72.6347 122.324 72.064 122.324 71.2C122.324 70.3467 122.18 69.7813 121.892 69.504C121.604 69.2267 121.044 69.088 120.212 69.088H115.06C113.524 69.088 112.367 68.6987 111.588 67.92C110.809 67.1413 110.42 65.984 110.42 64.448C110.42 62.88 110.799 61.712 111.556 60.944C112.324 60.1653 113.492 59.776 115.06 59.776H120.052C122.559 59.776 124.041 60.832 124.5 62.944C124.585 63.392 124.5 63.7387 124.244 63.984C123.988 64.2293 123.636 64.352 123.188 64.352C122.772 64.352 122.463 64.2453 122.26 64.032C122.057 63.808 121.897 63.4987 121.78 63.104C121.652 62.848 121.455 62.6773 121.188 62.592C120.932 62.5067 120.553 62.464 120.052 62.464H115.06C114.249 62.464 113.721 62.5867 113.476 62.832C113.231 63.0773 113.108 63.616 113.108 64.448C113.108 65.216 113.236 65.7333 113.492 66C113.759 66.2667 114.281 66.4 115.06 66.4H120.212C121.812 66.4 123.012 66.8 123.812 67.6C124.612 68.4 125.012 69.6 125.012 71.2C125.012 72.8107 124.612 74.016 123.812 74.816C123.012 75.6053 121.812 76 120.212 76H114.964ZM137.567 76C135.455 76 133.897 75.4987 132.895 74.496C131.892 73.4933 131.391 71.9467 131.391 69.856V62.464H129.823C128.927 62.464 128.479 62.016 128.479 61.12C128.479 60.224 128.927 59.776 129.823 59.776H131.391V57.44C131.391 56.544 131.839 56.096 132.735 56.096C133.631 56.096 134.079 56.544 134.079 57.44V59.776H137.759C138.655 59.776 139.103 60.224 139.103 61.12C139.103 62.016 138.655 62.464 137.759 62.464H134.079V69.856C134.079 71.2107 134.324 72.128 134.815 72.608C135.305 73.0773 136.223 73.312 137.567 73.312C137.983 73.312 138.308 73.4187 138.543 73.632C138.788 73.8453 138.911 74.1867 138.911 74.656C138.911 75.552 138.463 76 137.567 76ZM145.469 76C144.573 76 144.125 75.552 144.125 74.656V61.12C144.125 60.224 144.573 59.776 145.469 59.776C146.365 59.776 146.813 60.224 146.813 61.12V62.368C147.442 61.5147 148.242 60.8693 149.213 60.432C150.194 59.9947 151.314 59.776 152.573 59.776C153.469 59.776 153.917 60.224 153.917 61.12C153.917 62.016 153.469 62.464 152.573 62.464C150.728 62.464 149.32 62.8053 148.349 63.488C147.378 64.1707 146.866 65.072 146.813 66.192V74.656C146.813 75.552 146.365 76 145.469 76ZM161.804 76C160.012 76 158.679 75.5627 157.804 74.688C156.93 73.8133 156.492 72.48 156.492 70.688C156.492 68.896 156.924 67.5627 157.788 66.688C158.663 65.8133 160.002 65.376 161.804 65.376H168.572C168.508 64.256 168.215 63.4933 167.692 63.088C167.17 62.672 166.274 62.464 165.004 62.464H163.148C162.082 62.464 161.287 62.5387 160.764 62.688C160.242 62.8267 159.874 63.0827 159.66 63.456C159.468 63.904 159.271 64.2133 159.068 64.384C158.866 64.5547 158.562 64.64 158.156 64.64C157.708 64.64 157.356 64.5173 157.1 64.272C156.844 64.016 156.77 63.68 156.876 63.264C157.196 62.0587 157.863 61.1787 158.876 60.624C159.9 60.0587 161.324 59.776 163.148 59.776H165.004C167.138 59.776 168.716 60.288 169.74 61.312C170.764 62.336 171.276 63.9147 171.276 66.048V74.656C171.276 75.552 170.828 76 169.932 76C169.036 76 168.588 75.552 168.588 74.656V73.936C167.447 75.312 165.783 76 163.596 76H161.804ZM161.804 73.312H163.596C164.386 73.312 165.127 73.2427 165.82 73.104C166.514 72.9547 167.106 72.688 167.596 72.304C168.098 71.92 168.428 71.3707 168.588 70.656V68.064H161.804C160.748 68.064 160.044 68.24 159.692 68.592C159.351 68.944 159.18 69.6427 159.18 70.688C159.18 71.744 159.351 72.448 159.692 72.8C160.044 73.1413 160.748 73.312 161.804 73.312ZM183.129 76C181.006 76 179.428 75.488 178.393 74.464C177.369 73.4293 176.857 71.8507 176.857 69.728V66.016C176.857 63.8827 177.364 62.304 178.377 61.28C179.401 60.256 180.985 59.7547 183.129 59.776H185.753C187.342 59.776 188.59 60.0427 189.497 60.576C190.414 61.1093 191.001 61.9307 191.257 63.04C191.353 63.488 191.273 63.8347 191.017 64.08C190.772 64.3253 190.414 64.448 189.945 64.448C189.529 64.448 189.225 64.3413 189.033 64.128C188.841 63.9147 188.665 63.616 188.505 63.232C188.345 62.944 188.052 62.7467 187.625 62.64C187.198 62.5227 186.574 62.464 185.753 62.464H183.129C181.753 62.4427 180.809 62.6827 180.297 63.184C179.796 63.6747 179.545 64.6187 179.545 66.016V69.728C179.545 71.1147 179.796 72.0587 180.297 72.56C180.809 73.0613 181.753 73.312 183.129 73.312H185.753C186.574 73.312 187.198 73.2587 187.625 73.152C188.052 73.0347 188.345 72.832 188.505 72.544C188.665 72.1387 188.841 71.8347 189.033 71.632C189.236 71.4293 189.55 71.328 189.977 71.328C190.425 71.328 190.772 71.4507 191.017 71.696C191.273 71.9413 191.353 72.288 191.257 72.736C191.001 73.8347 190.414 74.656 189.497 75.2C188.59 75.7333 187.342 76 185.753 76H183.129ZM203.692 76C201.58 76 200.022 75.4987 199.02 74.496C198.017 73.4933 197.516 71.9467 197.516 69.856V62.464H195.948C195.052 62.464 194.604 62.016 194.604 61.12C194.604 60.224 195.052 59.776 195.948 59.776H197.516V57.44C197.516 56.544 197.964 56.096 198.86 56.096C199.756 56.096 200.204 56.544 200.204 57.44V59.776H203.884C204.78 59.776 205.228 60.224 205.228 61.12C205.228 62.016 204.78 62.464 203.884 62.464H200.204V69.856C200.204 71.2107 200.449 72.128 200.94 72.608C201.43 73.0773 202.348 73.312 203.692 73.312C204.108 73.312 204.433 73.4187 204.668 73.632C204.913 73.8453 205.036 74.1867 205.036 74.656C205.036 75.552 204.588 76 203.692 76Z" fill="white"/>
</g>
<defs>
<clipPath id="clip0_22_41">
<rect width="1440" height="155" fill="white"/>
</clipPath>
</defs>
</svg>
