<svg width="1440" height="135" viewBox="0 0 1440 135" fill="none" xmlns="http://www.w3.org/2000/svg">
<g clip-path="url(#clip0_27_171)">
<rect width="1440" height="135" fill="white"/>
<line x1="29.0106" y1="106.5" x2="1440.01" y2="112.5" stroke="#211C6A" stroke-width="5"/>
<path d="M9 68.3C9 51.2153 9 42.6729 12.3776 36.1708C15.2239 30.6915 19.6915 26.2239 25.1708 23.3776C31.6729 20 40.2153 20 57.3 20H215.7C232.785 20 241.327 20 247.829 23.3776C253.309 26.2239 257.776 30.6915 260.622 36.1708C264 42.6729 264 51.2153 264 68.3V109H9V68.3Z" fill="#211C6A"/>
<path d="M74.5718 76C72.1291 76 70.3211 75.4187 69.1478 74.256C67.9851 73.0827 67.4038 71.2747 67.4038 68.832V61.44C67.4038 58.976 67.9904 57.168 69.1638 56.016C70.3371 54.8533 72.1398 54.2827 74.5718 54.304H78.4118C80.8651 54.304 82.6731 54.8853 83.8358 56.048C84.9984 57.2107 85.5798 59.0187 85.5798 61.472V68.832C85.5798 71.2747 84.9984 73.0827 83.8358 74.256C82.6731 75.4187 80.8651 76 78.4118 76H74.5718ZM74.5718 73.312H78.4118C79.5531 73.312 80.4491 73.1787 81.0998 72.912C81.7504 72.6347 82.2091 72.1707 82.4757 71.52C82.7531 70.8693 82.8918 69.9733 82.8918 68.832V61.472C82.8918 60.3413 82.7531 59.4507 82.4757 58.8C82.2091 58.1493 81.7504 57.6853 81.0998 57.408C80.4491 57.1307 79.5531 56.992 78.4118 56.992H74.5718C73.4411 56.9813 72.5504 57.1093 71.8998 57.376C71.2491 57.6427 70.7851 58.1013 70.5078 58.752C70.2304 59.4027 70.0918 60.2987 70.0918 61.44V68.832C70.0918 69.9733 70.2251 70.8693 70.4918 71.52C70.7691 72.1707 71.2331 72.6347 71.8838 72.912C72.5344 73.1787 73.4304 73.312 74.5718 73.312ZM97.789 75.008C97.6503 75.3387 97.453 75.5893 97.197 75.76C96.9517 75.92 96.637 76 96.253 76C95.581 76 95.101 75.648 94.813 74.944L89.373 61.696C88.9997 60.8427 89.2343 60.256 90.077 59.936C90.877 59.5627 91.4637 59.7973 91.837 60.64L96.925 73.056H95.677L101.245 60.576C101.426 60.224 101.672 59.984 101.981 59.856C102.301 59.728 102.653 59.7547 103.037 59.936C103.826 60.3093 104.04 60.9067 103.677 61.728L97.789 75.008ZM109.592 68.992V69.76C109.592 71.136 109.842 72.0747 110.344 72.576C110.845 73.0667 111.789 73.312 113.176 73.312H115.8C116.888 73.312 117.693 73.2107 118.216 73.008C118.738 72.8053 119.085 72.448 119.256 71.936C119.373 71.5307 119.533 71.2213 119.736 71.008C119.949 70.7947 120.269 70.688 120.696 70.688C121.144 70.688 121.485 70.8053 121.72 71.04C121.954 71.2747 122.029 71.616 121.944 72.064C121.709 73.3867 121.08 74.3733 120.056 75.024C119.032 75.6747 117.613 76 115.8 76H113.176C111.053 76 109.474 75.488 108.44 74.464C107.416 73.44 106.904 71.872 106.904 69.76V66.048C106.904 63.8827 107.416 62.2933 108.44 61.28C109.474 60.256 111.053 59.7547 113.176 59.776H115.8C117.933 59.776 119.512 60.288 120.536 61.312C121.56 62.3253 122.072 63.904 122.072 66.048V67.648C122.072 68.544 121.624 68.992 120.728 68.992H109.592ZM113.176 62.464C111.789 62.4427 110.845 62.6827 110.344 63.184C109.842 63.6853 109.592 64.64 109.592 66.048V66.304H119.384V66.048C119.384 64.6507 119.133 63.7067 118.632 63.216C118.141 62.7147 117.197 62.464 115.8 62.464H113.176ZM129.297 76C128.401 76 127.953 75.552 127.953 74.656V61.12C127.953 60.224 128.401 59.776 129.297 59.776C130.193 59.776 130.641 60.224 130.641 61.12V62.368C131.27 61.5147 132.07 60.8693 133.041 60.432C134.022 59.9947 135.142 59.776 136.401 59.776C137.297 59.776 137.745 60.224 137.745 61.12C137.745 62.016 137.297 62.464 136.401 62.464C134.556 62.464 133.148 62.8053 132.177 63.488C131.206 64.1707 130.694 65.072 130.641 66.192V74.656C130.641 75.552 130.193 76 129.297 76ZM147.945 75.008C147.807 75.3387 147.609 75.5893 147.353 75.76C147.108 75.92 146.793 76 146.409 76C145.737 76 145.257 75.648 144.969 74.944L139.529 61.696C139.156 60.8427 139.391 60.256 140.233 59.936C141.033 59.5627 141.62 59.7973 141.993 60.64L147.081 73.056H145.833L151.401 60.576C151.583 60.224 151.828 59.984 152.137 59.856C152.457 59.728 152.809 59.7547 153.193 59.936C153.983 60.3093 154.196 60.9067 153.833 61.728L147.945 75.008ZM159.349 57.152C158.336 57.152 157.829 56.64 157.829 55.616V54.672C157.829 53.6693 158.336 53.168 159.349 53.168H160.277C161.248 53.168 161.733 53.6693 161.733 54.672V55.616C161.733 56.64 161.248 57.152 160.277 57.152H159.349ZM159.797 76C158.901 76 158.453 75.552 158.453 74.656V61.12C158.453 60.224 158.901 59.776 159.797 59.776C160.693 59.776 161.141 60.224 161.141 61.12V74.656C161.141 75.552 160.693 76 159.797 76ZM169.717 68.992V69.76C169.717 71.136 169.967 72.0747 170.469 72.576C170.97 73.0667 171.914 73.312 173.301 73.312H175.925C177.013 73.312 177.818 73.2107 178.341 73.008C178.863 72.8053 179.21 72.448 179.381 71.936C179.498 71.5307 179.658 71.2213 179.861 71.008C180.074 70.7947 180.394 70.688 180.821 70.688C181.269 70.688 181.61 70.8053 181.845 71.04C182.079 71.2747 182.154 71.616 182.069 72.064C181.834 73.3867 181.205 74.3733 180.181 75.024C179.157 75.6747 177.738 76 175.925 76H173.301C171.178 76 169.599 75.488 168.565 74.464C167.541 73.44 167.029 71.872 167.029 69.76V66.048C167.029 63.8827 167.541 62.2933 168.565 61.28C169.599 60.256 171.178 59.7547 173.301 59.776H175.925C178.058 59.776 179.637 60.288 180.661 61.312C181.685 62.3253 182.197 63.904 182.197 66.048V67.648C182.197 68.544 181.749 68.992 180.853 68.992H169.717ZM173.301 62.464C171.914 62.4427 170.97 62.6827 170.469 63.184C169.967 63.6853 169.717 64.64 169.717 66.048V66.304H179.509V66.048C179.509 64.6507 179.258 63.7067 178.757 63.216C178.266 62.7147 177.322 62.464 175.925 62.464H173.301ZM191.165 76C190.461 76 189.992 75.6373 189.757 74.912L185.309 61.536C185.032 60.7253 185.32 60.1707 186.173 59.872C187.016 59.584 187.581 59.872 187.869 60.736L191.485 71.504H191.277L194.685 60.736C194.92 60.032 195.432 59.68 196.221 59.68C196.968 59.68 197.448 60.0533 197.661 60.8L200.845 71.392H200.717L204.413 60.704C204.722 59.84 205.298 59.5627 206.141 59.872C206.984 60.1707 207.25 60.7467 206.941 61.6L202.077 74.912C201.81 75.6373 201.309 76 200.573 76C199.816 76 199.325 75.6267 199.101 74.88L195.805 63.872H196.157L192.573 74.912C192.466 75.264 192.29 75.536 192.045 75.728C191.8 75.9093 191.506 76 191.165 76Z" fill="white"/>
</g>
<defs>
<clipPath id="clip0_27_171">
<rect width="1440" height="135" fill="white"/>
</clipPath>
</defs>
</svg>
