<svg width="1440" height="155" viewBox="0 0 1440 155" fill="none" xmlns="http://www.w3.org/2000/svg">
<g clip-path="url(#clip0_152_40)">
<rect width="1440" height="155" fill="white"/>
<line x1="29.0106" y1="106.5" x2="1440.01" y2="112.5" stroke="#211C6A" stroke-width="5"/>
<path d="M9 68.3C9 51.2153 9 42.6729 12.3776 36.1708C15.2239 30.6915 19.6915 26.2239 25.1708 23.3776C31.6729 20 40.2153 20 57.3 20H240.7C257.785 20 266.327 20 272.829 23.3776C278.309 26.2239 282.776 30.6915 285.622 36.1708C289 42.6729 289 51.2153 289 68.3V109H9V68.3Z" fill="#211C6A"/>
<path d="M27.6403 76C27.0536 76 26.6376 75.616 26.3923 74.848L20.4723 56.096C20.3443 55.6907 20.4029 55.2853 20.6483 54.88C20.9043 54.4747 21.2723 54.272 21.7523 54.272C22.0083 54.272 22.2536 54.3573 22.4883 54.528C22.7229 54.688 22.8936 54.944 23.0003 55.296L28.2163 71.904H27.5123L32.4723 55.456C32.5896 55.072 32.7869 54.784 33.0643 54.592C33.3523 54.4 33.6456 54.304 33.9443 54.304C34.2643 54.304 34.5736 54.4 34.8723 54.592C35.1709 54.784 35.3736 55.072 35.4803 55.456L40.4403 71.904H39.7363L44.9523 55.296C45.0696 54.944 45.2349 54.6933 45.4483 54.544C45.6723 54.384 45.9123 54.304 46.1683 54.304C46.6376 54.304 47.0109 54.4853 47.2883 54.848C47.5656 55.2107 47.6296 55.6267 47.4803 56.096L41.5603 74.848C41.3043 75.616 40.8349 76 40.1523 76H40.0883C39.3736 76 38.9043 75.616 38.6803 74.848L33.5283 58.176H34.2323L29.0483 74.848C28.9416 75.232 28.7816 75.52 28.5683 75.712C28.3656 75.904 28.0563 76 27.6403 76ZM51.3105 68.992V69.76C51.3105 71.136 51.5612 72.0747 52.0625 72.576C52.5638 73.0667 53.5078 73.312 54.8945 73.312H57.5185C58.6065 73.312 59.4118 73.2107 59.9345 73.008C60.4572 72.8053 60.8038 72.448 60.9745 71.936C61.0918 71.5307 61.2518 71.2213 61.4545 71.008C61.6678 70.7947 61.9878 70.688 62.4145 70.688C62.8625 70.688 63.2038 70.8053 63.4385 71.04C63.6732 71.2747 63.7478 71.616 63.6625 72.064C63.4278 73.3867 62.7985 74.3733 61.7745 75.024C60.7505 75.6747 59.3318 76 57.5185 76H54.8945C52.7718 76 51.1932 75.488 50.1585 74.464C49.1345 73.44 48.6225 71.872 48.6225 69.76V66.048C48.6225 63.8827 49.1345 62.2933 50.1585 61.28C51.1932 60.256 52.7718 59.7547 54.8945 59.776H57.5185C59.6518 59.776 61.2305 60.288 62.2545 61.312C63.2785 62.3253 63.7905 63.904 63.7905 66.048V67.648C63.7905 68.544 63.3425 68.992 62.4465 68.992H51.3105ZM54.8945 62.464C53.5078 62.4427 52.5638 62.6827 52.0625 63.184C51.5612 63.6853 51.3105 64.64 51.3105 66.048V66.304H61.1025V66.048C61.1025 64.6507 60.8518 63.7067 60.3505 63.216C59.8598 62.7147 58.9158 62.464 57.5185 62.464H54.8945ZM71.0158 76C70.1198 76 69.6718 75.552 69.6718 74.656V54.816C69.6718 53.92 70.1198 53.472 71.0158 53.472C71.9118 53.472 72.3598 53.92 72.3598 54.816V61.488C72.9144 60.9227 73.6078 60.496 74.4398 60.208C75.2718 59.92 76.2424 59.776 77.3518 59.776H78.5678C80.7011 59.776 82.2798 60.288 83.3038 61.312C84.3278 62.336 84.8398 63.9147 84.8398 66.048V69.728C84.8398 71.8507 84.3278 73.4293 83.3038 74.464C82.2798 75.488 80.7011 76 78.5678 76H77.3518C76.2424 76 75.2718 75.856 74.4398 75.568C73.6078 75.28 72.9144 74.8587 72.3598 74.304V74.656C72.3598 75.552 71.9118 76 71.0158 76ZM77.3518 73.312H78.5678C79.9651 73.312 80.9091 73.0613 81.3998 72.56C81.9011 72.048 82.1518 71.104 82.1518 69.728V66.048C82.1518 64.6507 81.8958 63.7067 81.3838 63.216C80.8824 62.7147 79.9438 62.464 78.5678 62.464H77.3518C75.9438 62.464 74.7598 62.6453 73.7998 63.008C72.8398 63.36 72.3598 63.9147 72.3598 64.672V71.104C72.3598 71.8507 72.8398 72.4053 73.7998 72.768C74.7598 73.1307 75.9438 73.312 77.3518 73.312ZM105.789 76C103.997 76 102.663 75.5627 101.789 74.688C100.914 73.8133 100.477 72.48 100.477 70.688C100.477 68.896 100.909 67.5627 101.773 66.688C102.647 65.8133 103.986 65.376 105.789 65.376H112.557C112.493 64.256 112.199 63.4933 111.677 63.088C111.154 62.672 110.258 62.464 108.989 62.464H107.133C106.066 62.464 105.271 62.5387 104.749 62.688C104.226 62.8267 103.858 63.0827 103.645 63.456C103.453 63.904 103.255 64.2133 103.053 64.384C102.85 64.5547 102.546 64.64 102.141 64.64C101.693 64.64 101.341 64.5173 101.085 64.272C100.829 64.016 100.754 63.68 100.861 63.264C101.181 62.0587 101.847 61.1787 102.861 60.624C103.885 60.0587 105.309 59.776 107.133 59.776H108.989C111.122 59.776 112.701 60.288 113.725 61.312C114.749 62.336 115.261 63.9147 115.261 66.048V74.656C115.261 75.552 114.813 76 113.917 76C113.021 76 112.573 75.552 112.573 74.656V73.936C111.431 75.312 109.767 76 107.581 76H105.789ZM105.789 73.312H107.581C108.37 73.312 109.111 73.2427 109.805 73.104C110.498 72.9547 111.09 72.688 111.581 72.304C112.082 71.92 112.413 71.3707 112.573 70.656V68.064H105.789C104.733 68.064 104.029 68.24 103.677 68.592C103.335 68.944 103.165 69.6427 103.165 70.688C103.165 71.744 103.335 72.448 103.677 72.8C104.029 73.1413 104.733 73.312 105.789 73.312ZM122.953 82.4C122.057 82.4 121.609 81.952 121.609 81.056V61.12C121.609 60.224 122.057 59.776 122.953 59.776C123.849 59.776 124.297 60.224 124.297 61.12V61.52C124.873 60.944 125.583 60.512 126.425 60.224C127.279 59.9253 128.233 59.776 129.289 59.776H130.505C132.639 59.776 134.217 60.288 135.241 61.312C136.265 62.336 136.777 63.9147 136.777 66.048V69.728C136.777 71.8507 136.265 73.4293 135.241 74.464C134.217 75.488 132.639 76 130.505 76H124.297V81.056C124.297 81.952 123.849 82.4 122.953 82.4ZM124.297 73.312H130.505C131.903 73.312 132.847 73.0613 133.337 72.56C133.839 72.0587 134.089 71.1147 134.089 69.728V66.048C134.089 64.6507 133.839 63.7067 133.337 63.216C132.847 62.7147 131.903 62.464 130.505 62.464H129.289C127.956 62.464 126.804 62.624 125.833 62.944C124.863 63.264 124.351 63.7707 124.297 64.464V73.312ZM144.016 82.4C143.12 82.4 142.672 81.952 142.672 81.056V61.12C142.672 60.224 143.12 59.776 144.016 59.776C144.912 59.776 145.36 60.224 145.36 61.12V61.52C145.936 60.944 146.645 60.512 147.488 60.224C148.341 59.9253 149.296 59.776 150.352 59.776H151.568C153.701 59.776 155.28 60.288 156.304 61.312C157.328 62.336 157.84 63.9147 157.84 66.048V69.728C157.84 71.8507 157.328 73.4293 156.304 74.464C155.28 75.488 153.701 76 151.568 76H145.36V81.056C145.36 81.952 144.912 82.4 144.016 82.4ZM145.36 73.312H151.568C152.965 73.312 153.909 73.0613 154.4 72.56C154.901 72.0587 155.152 71.1147 155.152 69.728V66.048C155.152 64.6507 154.901 63.7067 154.4 63.216C153.909 62.7147 152.965 62.464 151.568 62.464H150.352C149.018 62.464 147.866 62.624 146.896 62.944C145.925 63.264 145.413 63.7707 145.36 64.464V73.312ZM168.566 76C166.934 76 165.718 75.6 164.918 74.8C164.129 73.9893 163.734 72.768 163.734 71.136V54.816C163.734 53.92 164.182 53.472 165.078 53.472C165.974 53.472 166.422 53.92 166.422 54.816V71.136C166.422 72 166.561 72.5813 166.838 72.88C167.126 73.168 167.702 73.312 168.566 73.312C169.484 73.312 169.942 73.76 169.942 74.656C169.974 75.552 169.516 76 168.566 76ZM175.599 57.152C174.586 57.152 174.079 56.64 174.079 55.616V54.672C174.079 53.6693 174.586 53.168 175.599 53.168H176.527C177.498 53.168 177.983 53.6693 177.983 54.672V55.616C177.983 56.64 177.498 57.152 176.527 57.152H175.599ZM176.047 76C175.151 76 174.703 75.552 174.703 74.656V61.12C174.703 60.224 175.151 59.776 176.047 59.776C176.943 59.776 177.391 60.224 177.391 61.12V74.656C177.391 75.552 176.943 76 176.047 76ZM189.551 76C187.428 76 185.849 75.488 184.815 74.464C183.791 73.4293 183.279 71.8507 183.279 69.728V66.016C183.279 63.8827 183.785 62.304 184.799 61.28C185.823 60.256 187.407 59.7547 189.551 59.776H192.175C193.764 59.776 195.012 60.0427 195.919 60.576C196.836 61.1093 197.423 61.9307 197.679 63.04C197.775 63.488 197.695 63.8347 197.439 64.08C197.193 64.3253 196.836 64.448 196.367 64.448C195.951 64.448 195.647 64.3413 195.455 64.128C195.263 63.9147 195.087 63.616 194.927 63.232C194.767 62.944 194.473 62.7467 194.047 62.64C193.62 62.5227 192.996 62.464 192.175 62.464H189.551C188.175 62.4427 187.231 62.6827 186.719 63.184C186.217 63.6747 185.967 64.6187 185.967 66.016V69.728C185.967 71.1147 186.217 72.0587 186.719 72.56C187.231 73.0613 188.175 73.312 189.551 73.312H192.175C192.996 73.312 193.62 73.2587 194.047 73.152C194.473 73.0347 194.767 72.832 194.927 72.544C195.087 72.1387 195.263 71.8347 195.455 71.632C195.657 71.4293 195.972 71.328 196.399 71.328C196.847 71.328 197.193 71.4507 197.439 71.696C197.695 71.9413 197.775 72.288 197.679 72.736C197.423 73.8347 196.836 74.656 195.919 75.2C195.012 75.7333 193.764 76 192.175 76H189.551ZM207.633 76C205.841 76 204.507 75.5627 203.633 74.688C202.758 73.8133 202.321 72.48 202.321 70.688C202.321 68.896 202.753 67.5627 203.617 66.688C204.491 65.8133 205.83 65.376 207.633 65.376H214.401C214.337 64.256 214.043 63.4933 213.521 63.088C212.998 62.672 212.102 62.464 210.833 62.464H208.977C207.91 62.464 207.115 62.5387 206.593 62.688C206.07 62.8267 205.702 63.0827 205.489 63.456C205.297 63.904 205.099 64.2133 204.897 64.384C204.694 64.5547 204.39 64.64 203.985 64.64C203.537 64.64 203.185 64.5173 202.929 64.272C202.673 64.016 202.598 63.68 202.705 63.264C203.025 62.0587 203.691 61.1787 204.705 60.624C205.729 60.0587 207.153 59.776 208.977 59.776H210.833C212.966 59.776 214.545 60.288 215.569 61.312C216.593 62.336 217.105 63.9147 217.105 66.048V74.656C217.105 75.552 216.657 76 215.76 76C214.865 76 214.417 75.552 214.417 74.656V73.936C213.275 75.312 211.611 76 209.425 76H207.633ZM207.633 73.312H209.425C210.214 73.312 210.955 73.2427 211.649 73.104C212.342 72.9547 212.934 72.688 213.425 72.304C213.926 71.92 214.257 71.3707 214.417 70.656V68.064H207.633C206.577 68.064 205.873 68.24 205.521 68.592C205.179 68.944 205.009 69.6427 205.009 70.688C205.009 71.744 205.179 72.448 205.521 72.8C205.873 73.1413 206.577 73.312 207.633 73.312ZM230.301 76C228.189 76 226.632 75.4987 225.629 74.496C224.626 73.4933 224.125 71.9467 224.125 69.856V62.464H222.557C221.661 62.464 221.213 62.016 221.213 61.12C221.213 60.224 221.661 59.776 222.557 59.776H224.125V57.44C224.125 56.544 224.573 56.096 225.469 56.096C226.365 56.096 226.813 56.544 226.813 57.44V59.776H230.493C231.389 59.776 231.837 60.224 231.837 61.12C231.837 62.016 231.389 62.464 230.493 62.464H226.813V69.856C226.813 71.2107 227.058 72.128 227.549 72.608C228.04 73.0773 228.957 73.312 230.301 73.312C230.717 73.312 231.042 73.4187 231.277 73.632C231.522 73.8453 231.645 74.1867 231.645 74.656C231.645 75.552 231.197 76 230.301 76ZM237.755 57.152C236.742 57.152 236.235 56.64 236.235 55.616V54.672C236.235 53.6693 236.742 53.168 237.755 53.168H238.683C239.654 53.168 240.139 53.6693 240.139 54.672V55.616C240.139 56.64 239.654 57.152 238.683 57.152H237.755ZM238.203 76C237.307 76 236.859 75.552 236.859 74.656V61.12C236.859 60.224 237.307 59.776 238.203 59.776C239.099 59.776 239.547 60.224 239.547 61.12V74.656C239.547 75.552 239.099 76 238.203 76ZM251.707 76C249.584 76 248.006 75.488 246.971 74.464C245.947 73.44 245.435 71.872 245.435 69.76V66.048C245.435 63.904 245.947 62.3253 246.971 61.312C248.006 60.288 249.584 59.776 251.707 59.776H254.331C256.464 59.776 258.043 60.288 259.067 61.312C260.091 62.336 260.603 63.9147 260.603 66.048V69.728C260.603 71.8507 260.091 73.4293 259.067 74.464C258.043 75.488 256.464 76 254.331 76H251.707ZM248.123 69.76C248.123 71.136 248.374 72.0747 248.875 72.576C249.376 73.0667 250.32 73.312 251.707 73.312H254.331C255.728 73.312 256.672 73.0613 257.163 72.56C257.664 72.0587 257.915 71.1147 257.915 69.728V66.048C257.915 64.6507 257.664 63.7067 257.163 63.216C256.672 62.7147 255.728 62.464 254.331 62.464H251.707C250.779 62.464 250.054 62.5707 249.531 62.784C249.019 62.9867 248.656 63.3493 248.443 63.872C248.23 64.384 248.123 65.1093 248.123 66.048V69.76ZM267.828 76C266.932 76 266.484 75.552 266.484 74.656V61.12C266.484 60.224 266.932 59.776 267.828 59.776C268.724 59.776 269.172 60.224 269.172 61.12V61.648C270.303 60.4 271.967 59.776 274.164 59.776H275.06C277.194 59.776 278.772 60.288 279.796 61.312C280.82 62.336 281.332 63.9147 281.332 66.048V74.656C281.332 75.552 280.884 76 279.988 76C279.092 76 278.644 75.552 278.644 74.656V66.048C278.644 64.6507 278.388 63.7067 277.876 63.216C277.375 62.7147 276.436 62.464 275.06 62.464H274.164C272.884 62.464 271.77 62.6133 270.82 62.912C269.871 63.2 269.322 63.6587 269.172 64.288V74.656C269.172 75.552 268.724 76 267.828 76Z" fill="white"/>
</g>
<defs>
<clipPath id="clip0_152_40">
<rect width="1440" height="155" fill="white"/>
</clipPath>
</defs>
</svg>
